<mxfile host="app.diagrams.net" agent="Mozilla/5.0 (Windows NT 10.0; Win64; x64) AppleWebKit/537.36 (KHTML, like Gecko) Chrome/140.0.0.0 Safari/537.36" version="28.2.4">
  <diagram name="Page-1" id="j1dtWmmvOzdPRzKFRHaL">
    <mxGraphModel dx="1507" dy="661" grid="1" gridSize="10" guides="1" tooltips="1" connect="1" arrows="1" fold="1" page="1" pageScale="1" pageWidth="827" pageHeight="1169" math="0" shadow="0">
      <root>
        <mxCell id="0" />
        <mxCell id="1" parent="0" />
        <mxCell id="CvR_p0ys87GuMxXZfBsb-54" style="edgeStyle=orthogonalEdgeStyle;rounded=0;orthogonalLoop=1;jettySize=auto;html=1;exitX=0;exitY=0.25;exitDx=0;exitDy=0;entryX=1;entryY=0.25;entryDx=0;entryDy=0;" edge="1" parent="1" source="hfL8th9RIKKejzOSGt1w-1" target="hfL8th9RIKKejzOSGt1w-32">
          <mxGeometry relative="1" as="geometry" />
        </mxCell>
        <mxCell id="hfL8th9RIKKejzOSGt1w-1" value="" style="rounded=0;whiteSpace=wrap;html=1;" parent="1" vertex="1">
          <mxGeometry x="898" y="444" width="240" height="180" as="geometry" />
        </mxCell>
        <mxCell id="hfL8th9RIKKejzOSGt1w-2" value="" style="rounded=0;whiteSpace=wrap;html=1;" parent="1" vertex="1">
          <mxGeometry x="50" y="80" width="1330" height="340" as="geometry" />
        </mxCell>
        <mxCell id="hfL8th9RIKKejzOSGt1w-3" value="" style="image;aspect=fixed;html=1;points=[];align=center;fontSize=12;image=img/lib/azure2/storage/Storage_Accounts.svg;" parent="1" vertex="1">
          <mxGeometry x="60" y="90" width="65" height="52" as="geometry" />
        </mxCell>
        <mxCell id="hfL8th9RIKKejzOSGt1w-4" value="Azure Data Lake Storage Account" style="text;html=1;align=center;verticalAlign=middle;resizable=0;points=[];autosize=1;strokeColor=none;fillColor=none;" parent="1" vertex="1">
          <mxGeometry x="125" y="101" width="200" height="30" as="geometry" />
        </mxCell>
        <mxCell id="hfL8th9RIKKejzOSGt1w-5" value="" style="rounded=0;whiteSpace=wrap;html=1;" parent="1" vertex="1">
          <mxGeometry x="60" y="150" width="1290" height="250" as="geometry" />
        </mxCell>
        <mxCell id="CvR_p0ys87GuMxXZfBsb-35" style="edgeStyle=orthogonalEdgeStyle;rounded=0;orthogonalLoop=1;jettySize=auto;html=1;exitX=1;exitY=0.5;exitDx=0;exitDy=0;entryX=0;entryY=0;entryDx=0;entryDy=0;" edge="1" parent="1">
          <mxGeometry relative="1" as="geometry">
            <mxPoint x="544" y="258" as="sourcePoint" />
            <mxPoint x="683" y="258" as="targetPoint" />
          </mxGeometry>
        </mxCell>
        <mxCell id="CvR_p0ys87GuMxXZfBsb-23" value="" style="rounded=0;whiteSpace=wrap;html=1;" vertex="1" parent="1">
          <mxGeometry x="354" y="161.25" width="190" height="217.5" as="geometry" />
        </mxCell>
        <mxCell id="CvR_p0ys87GuMxXZfBsb-22" value="" style="rounded=0;whiteSpace=wrap;html=1;" vertex="1" parent="1">
          <mxGeometry x="68.75" y="162.5" width="190" height="217.5" as="geometry" />
        </mxCell>
        <mxCell id="hfL8th9RIKKejzOSGt1w-6" value="" style="image;sketch=0;aspect=fixed;html=1;points=[];align=center;fontSize=12;image=img/lib/mscae/Data_Lake.svg;" parent="1" vertex="1">
          <mxGeometry x="73.5" y="240" width="34.2" height="45" as="geometry" />
        </mxCell>
        <mxCell id="hfL8th9RIKKejzOSGt1w-7" value="raw" style="text;html=1;align=center;verticalAlign=middle;whiteSpace=wrap;rounded=0;" parent="1" vertex="1">
          <mxGeometry x="60" y="280" width="60" height="30" as="geometry" />
        </mxCell>
        <mxCell id="hfL8th9RIKKejzOSGt1w-10" value="" style="whiteSpace=wrap;html=1;shape=mxgraph.basic.document" parent="1" vertex="1">
          <mxGeometry x="131.25" y="180" width="37.5" height="50" as="geometry" />
        </mxCell>
        <mxCell id="hfL8th9RIKKejzOSGt1w-11" value="&lt;font style=&quot;font-size: 10px;&quot;&gt;Orders.csv&lt;/font&gt;" style="text;html=1;align=center;verticalAlign=middle;whiteSpace=wrap;rounded=0;" parent="1" vertex="1">
          <mxGeometry x="120" y="240" width="60" height="30" as="geometry" />
        </mxCell>
        <mxCell id="hfL8th9RIKKejzOSGt1w-12" value="" style="whiteSpace=wrap;html=1;shape=mxgraph.basic.document" parent="1" vertex="1">
          <mxGeometry x="195" y="180" width="37.5" height="50" as="geometry" />
        </mxCell>
        <mxCell id="hfL8th9RIKKejzOSGt1w-13" value="" style="whiteSpace=wrap;html=1;shape=mxgraph.basic.document" parent="1" vertex="1">
          <mxGeometry x="195" y="280" width="37.5" height="50" as="geometry" />
        </mxCell>
        <mxCell id="hfL8th9RIKKejzOSGt1w-14" value="" style="whiteSpace=wrap;html=1;shape=mxgraph.basic.document" parent="1" vertex="1">
          <mxGeometry x="131.25" y="280" width="37.5" height="50" as="geometry" />
        </mxCell>
        <mxCell id="CvR_p0ys87GuMxXZfBsb-9" style="edgeStyle=orthogonalEdgeStyle;rounded=0;orthogonalLoop=1;jettySize=auto;html=1;" edge="1" parent="1" target="CvR_p0ys87GuMxXZfBsb-6">
          <mxGeometry relative="1" as="geometry">
            <mxPoint x="260" y="260" as="sourcePoint" />
          </mxGeometry>
        </mxCell>
        <mxCell id="hfL8th9RIKKejzOSGt1w-15" value="&lt;font style=&quot;font-size: 10px;&quot;&gt;Customers.csv&lt;/font&gt;" style="text;html=1;align=center;verticalAlign=middle;whiteSpace=wrap;rounded=0;" parent="1" vertex="1">
          <mxGeometry x="193.63" y="240" width="60" height="30" as="geometry" />
        </mxCell>
        <mxCell id="hfL8th9RIKKejzOSGt1w-16" value="&lt;font style=&quot;font-size: 10px;&quot;&gt;Product.csv&lt;/font&gt;" style="text;html=1;align=center;verticalAlign=middle;whiteSpace=wrap;rounded=0;" parent="1" vertex="1">
          <mxGeometry x="120" y="340" width="60" height="30" as="geometry" />
        </mxCell>
        <mxCell id="hfL8th9RIKKejzOSGt1w-17" value="&lt;font style=&quot;font-size: 10px;&quot;&gt;Inventory.csv&lt;/font&gt;" style="text;html=1;align=center;verticalAlign=middle;whiteSpace=wrap;rounded=0;" parent="1" vertex="1">
          <mxGeometry x="183.75" y="340" width="60" height="30" as="geometry" />
        </mxCell>
        <mxCell id="CvR_p0ys87GuMxXZfBsb-55" style="edgeStyle=orthogonalEdgeStyle;rounded=0;orthogonalLoop=1;jettySize=auto;html=1;exitX=1;exitY=0.5;exitDx=0;exitDy=0;entryX=0;entryY=0.5;entryDx=0;entryDy=0;" edge="1" parent="1" source="hfL8th9RIKKejzOSGt1w-32" target="hfL8th9RIKKejzOSGt1w-1">
          <mxGeometry relative="1" as="geometry" />
        </mxCell>
        <mxCell id="hfL8th9RIKKejzOSGt1w-32" value="" style="rounded=0;whiteSpace=wrap;html=1;" parent="1" vertex="1">
          <mxGeometry x="270" y="444" width="320" height="176" as="geometry" />
        </mxCell>
        <mxCell id="hfL8th9RIKKejzOSGt1w-33" value="" style="image;aspect=fixed;html=1;points=[];align=center;fontSize=12;image=img/lib/azure2/databases/SQL_Database.svg;" parent="1" vertex="1">
          <mxGeometry x="300.5" y="499" width="37.5" height="50" as="geometry" />
        </mxCell>
        <mxCell id="hfL8th9RIKKejzOSGt1w-34" value="" style="image;aspect=fixed;html=1;points=[];align=center;fontSize=12;image=img/lib/azure2/databases/Data_Factory.svg;" parent="1" vertex="1">
          <mxGeometry x="290" y="222" width="48" height="48" as="geometry" />
        </mxCell>
        <mxCell id="hfL8th9RIKKejzOSGt1w-35" value="&#xa;&lt;b style=&quot;forced-color-adjust: none; color: rgb(0, 0, 0); font-family: Helvetica; font-size: 12px; font-style: normal; font-variant-ligatures: normal; font-variant-caps: normal; letter-spacing: normal; orphans: 2; text-align: center; text-indent: 0px; text-transform: none; widows: 2; word-spacing: 0px; -webkit-text-stroke-width: 0px; white-space: normal; background-color: rgb(236, 236, 236); text-decoration-thickness: initial; text-decoration-style: initial; text-decoration-color: initial;&quot;&gt;ADF Copy Pipeline&lt;/b&gt;&#xa;&#xa;" style="text;html=1;align=center;verticalAlign=middle;whiteSpace=wrap;rounded=0;" parent="1" vertex="1">
          <mxGeometry x="269.75" y="295" width="76.37" height="20" as="geometry" />
        </mxCell>
        <mxCell id="hfL8th9RIKKejzOSGt1w-42" value="" style="image;aspect=fixed;html=1;points=[];align=center;fontSize=12;image=img/lib/azure2/analytics/Azure_Databricks.svg;" parent="1" vertex="1">
          <mxGeometry x="585" y="222" width="53.56" height="58" as="geometry" />
        </mxCell>
        <mxCell id="hfL8th9RIKKejzOSGt1w-45" value="" style="verticalLabelPosition=bottom;html=1;verticalAlign=top;align=center;strokeColor=none;fillColor=#00BEF2;shape=mxgraph.azure.storage;pointerEvents=1;" parent="1" vertex="1">
          <mxGeometry x="408.49" y="474" width="50" height="40" as="geometry" />
        </mxCell>
        <mxCell id="hfL8th9RIKKejzOSGt1w-46" value="" style="verticalLabelPosition=bottom;html=1;verticalAlign=top;align=center;strokeColor=none;fillColor=#00BEF2;shape=mxgraph.azure.storage;pointerEvents=1;" parent="1" vertex="1">
          <mxGeometry x="498.49" y="474" width="50" height="40" as="geometry" />
        </mxCell>
        <mxCell id="hfL8th9RIKKejzOSGt1w-47" value="" style="verticalLabelPosition=bottom;html=1;verticalAlign=top;align=center;strokeColor=none;fillColor=#00BEF2;shape=mxgraph.azure.storage;pointerEvents=1;" parent="1" vertex="1">
          <mxGeometry x="408.49" y="539" width="50" height="40" as="geometry" />
        </mxCell>
        <mxCell id="hfL8th9RIKKejzOSGt1w-48" value="" style="verticalLabelPosition=bottom;html=1;verticalAlign=top;align=center;strokeColor=none;fillColor=#00BEF2;shape=mxgraph.azure.storage;pointerEvents=1;" parent="1" vertex="1">
          <mxGeometry x="506.49" y="539" width="50" height="40" as="geometry" />
        </mxCell>
        <mxCell id="hfL8th9RIKKejzOSGt1w-51" value="orders&lt;div&gt;&lt;br&gt;&lt;/div&gt;" style="text;html=1;align=center;verticalAlign=middle;whiteSpace=wrap;rounded=0;" parent="1" vertex="1">
          <mxGeometry x="373.49" y="519" width="120" height="30" as="geometry" />
        </mxCell>
        <mxCell id="hfL8th9RIKKejzOSGt1w-52" value="customers" style="text;html=1;align=center;verticalAlign=middle;whiteSpace=wrap;rounded=0;" parent="1" vertex="1">
          <mxGeometry x="463.49" y="509" width="120" height="30" as="geometry" />
        </mxCell>
        <mxCell id="hfL8th9RIKKejzOSGt1w-53" value="Products&amp;nbsp;" style="text;html=1;align=center;verticalAlign=middle;whiteSpace=wrap;rounded=0;" parent="1" vertex="1">
          <mxGeometry x="373.49" y="579" width="120" height="30" as="geometry" />
        </mxCell>
        <mxCell id="hfL8th9RIKKejzOSGt1w-54" value="Inventory" style="text;html=1;align=center;verticalAlign=middle;whiteSpace=wrap;rounded=0;" parent="1" vertex="1">
          <mxGeometry x="478" y="585" width="120" height="30" as="geometry" />
        </mxCell>
        <mxCell id="hfL8th9RIKKejzOSGt1w-55" value="" style="image;aspect=fixed;html=1;points=[];align=center;fontSize=12;image=img/lib/azure2/app_services/App_Services.svg;" parent="1" vertex="1">
          <mxGeometry x="940.34" y="535" width="44" height="44" as="geometry" />
        </mxCell>
        <mxCell id="hfL8th9RIKKejzOSGt1w-56" value="&lt;b&gt;Azure App Service&amp;nbsp;&lt;/b&gt;" style="text;html=1;align=center;verticalAlign=middle;whiteSpace=wrap;rounded=0;" parent="1" vertex="1">
          <mxGeometry x="912.34" y="584" width="120" height="30" as="geometry" />
        </mxCell>
        <mxCell id="hfL8th9RIKKejzOSGt1w-57" value="FAST API&amp;nbsp;" style="text;html=1;align=center;verticalAlign=middle;resizable=0;points=[];autosize=1;strokeColor=none;fillColor=none;" parent="1" vertex="1">
          <mxGeometry x="967.34" y="492" width="80" height="30" as="geometry" />
        </mxCell>
        <mxCell id="hfL8th9RIKKejzOSGt1w-58" value="" style="aspect=fixed;sketch=0;html=1;dashed=0;whitespace=wrap;verticalLabelPosition=bottom;verticalAlign=top;fillColor=#2875E2;strokeColor=#ffffff;points=[[0.005,0.63,0],[0.1,0.2,0],[0.9,0.2,0],[0.5,0,0],[0.995,0.63,0],[0.72,0.99,0],[0.5,1,0],[0.28,0.99,0]];shape=mxgraph.kubernetes.icon2;kubernetesLabel=1;prIcon=api" parent="1" vertex="1">
          <mxGeometry x="982.34" y="444" width="50" height="48" as="geometry" />
        </mxCell>
        <mxCell id="hfL8th9RIKKejzOSGt1w-60" value="&lt;b&gt;HIGH LEVEL DESIGN OF ECOMMERCE CAPTSTONE PROJECT&lt;/b&gt;" style="text;html=1;align=center;verticalAlign=middle;resizable=0;points=[];autosize=1;strokeColor=none;fillColor=none;" parent="1" vertex="1">
          <mxGeometry x="518" y="30" width="380" height="30" as="geometry" />
        </mxCell>
        <mxCell id="hfL8th9RIKKejzOSGt1w-66" value="&lt;h1 style=&quot;margin-top: 0px;&quot;&gt;ETL OPS (ADB)&lt;/h1&gt;&lt;p&gt;&lt;/p&gt;&lt;ul&gt;&lt;li&gt;Create transformed_orders.csv with derived columns like total_amount, &lt;br&gt;order_month.&lt;/li&gt;&lt;li&gt;&amp;nbsp;Filter inactive customers, low-stock products.&lt;/li&gt;&lt;/ul&gt;&lt;p&gt;&lt;/p&gt;" style="text;html=1;whiteSpace=wrap;overflow=hidden;rounded=0;" parent="1" vertex="1">
          <mxGeometry x="474" y="960" width="370" height="120" as="geometry" />
        </mxCell>
        <mxCell id="CvR_p0ys87GuMxXZfBsb-1" value="" style="verticalLabelPosition=bottom;sketch=0;aspect=fixed;html=1;verticalAlign=top;strokeColor=none;align=center;outlineConnect=0;shape=mxgraph.citrix.desktop;" vertex="1" parent="1">
          <mxGeometry x="1051.01" y="514" width="72.65" height="80" as="geometry" />
        </mxCell>
        <mxCell id="CvR_p0ys87GuMxXZfBsb-2" value="&lt;b&gt;VM&lt;/b&gt;" style="text;html=1;align=center;verticalAlign=middle;whiteSpace=wrap;rounded=0;" vertex="1" parent="1">
          <mxGeometry x="1027.1" y="594" width="120" height="30" as="geometry" />
        </mxCell>
        <mxCell id="CvR_p0ys87GuMxXZfBsb-3" value="&lt;b&gt;OR&lt;/b&gt;" style="text;html=1;align=center;verticalAlign=middle;whiteSpace=wrap;rounded=0;" vertex="1" parent="1">
          <mxGeometry x="962.34" y="549" width="120" height="30" as="geometry" />
        </mxCell>
        <mxCell id="CvR_p0ys87GuMxXZfBsb-6" value="" style="image;sketch=0;aspect=fixed;html=1;points=[];align=center;fontSize=12;image=img/lib/mscae/Data_Lake.svg;" vertex="1" parent="1">
          <mxGeometry x="370" y="225" width="34.2" height="45" as="geometry" />
        </mxCell>
        <mxCell id="CvR_p0ys87GuMxXZfBsb-7" value="bronze" style="text;html=1;align=center;verticalAlign=middle;whiteSpace=wrap;rounded=0;" vertex="1" parent="1">
          <mxGeometry x="354" y="270" width="60" height="30" as="geometry" />
        </mxCell>
        <mxCell id="CvR_p0ys87GuMxXZfBsb-14" value="" style="image;aspect=fixed;html=1;points=[];align=center;fontSize=12;image=img/lib/azure2/general/Folder_Blank.svg;" vertex="1" parent="1">
          <mxGeometry x="420" y="200" width="36.97" height="30" as="geometry" />
        </mxCell>
        <mxCell id="CvR_p0ys87GuMxXZfBsb-15" value="" style="image;aspect=fixed;html=1;points=[];align=center;fontSize=12;image=img/lib/azure2/general/Folder_Blank.svg;" vertex="1" parent="1">
          <mxGeometry x="489.51" y="200" width="36.97" height="30" as="geometry" />
        </mxCell>
        <mxCell id="CvR_p0ys87GuMxXZfBsb-16" value="" style="image;aspect=fixed;html=1;points=[];align=center;fontSize=12;image=img/lib/azure2/general/Folder_Blank.svg;" vertex="1" parent="1">
          <mxGeometry x="420" y="255" width="36.97" height="30" as="geometry" />
        </mxCell>
        <mxCell id="CvR_p0ys87GuMxXZfBsb-17" value="" style="image;aspect=fixed;html=1;points=[];align=center;fontSize=12;image=img/lib/azure2/general/Folder_Blank.svg;" vertex="1" parent="1">
          <mxGeometry x="489.51" y="260" width="36.97" height="30" as="geometry" />
        </mxCell>
        <mxCell id="CvR_p0ys87GuMxXZfBsb-18" value="&lt;font style=&quot;font-size: 10px;&quot;&gt;Orders&lt;/font&gt;" style="text;html=1;align=center;verticalAlign=middle;whiteSpace=wrap;rounded=0;" vertex="1" parent="1">
          <mxGeometry x="408.49" y="225" width="60" height="30" as="geometry" />
        </mxCell>
        <mxCell id="CvR_p0ys87GuMxXZfBsb-19" value="&lt;font style=&quot;font-size: 10px;&quot;&gt;Customers&lt;/font&gt;&lt;span style=&quot;color: rgba(0, 0, 0, 0); font-family: monospace; font-size: 0px; text-align: start; text-wrap-mode: nowrap;&quot;&gt;%3CmxGraphModel%3E%3Croot%3E%3CmxCell%20id%3D%220%22%2F%3E%3CmxCell%20id%3D%221%22%20parent%3D%220%22%2F%3E%3CmxCell%20id%3D%222%22%20value%3D%22%26lt%3Bfont%20style%3D%26quot%3Bfont-size%3A%2010px%3B%26quot%3B%26gt%3BOrders%26lt%3B%2Ffont%26gt%3B%22%20style%3D%22text%3Bhtml%3D1%3Balign%3Dcenter%3BverticalAlign%3Dmiddle%3BwhiteSpace%3Dwrap%3Brounded%3D0%3B%22%20vertex%3D%221%22%20parent%3D%221%22%3E%3CmxGeometry%20x%3D%22408.49%22%20y%3D%22225%22%20width%3D%2260%22%20height%3D%2230%22%20as%3D%22geometry%22%2F%3E%3C%2FmxCell%3E%3C%2Froot%3E%3C%2FmxGraphModel%3E&lt;/span&gt;" style="text;html=1;align=center;verticalAlign=middle;whiteSpace=wrap;rounded=0;" vertex="1" parent="1">
          <mxGeometry x="478" y="225" width="60" height="30" as="geometry" />
        </mxCell>
        <mxCell id="CvR_p0ys87GuMxXZfBsb-20" value="&lt;span style=&quot;font-size: 10px;&quot;&gt;Products&lt;/span&gt;" style="text;html=1;align=center;verticalAlign=middle;whiteSpace=wrap;rounded=0;" vertex="1" parent="1">
          <mxGeometry x="414" y="285" width="60" height="30" as="geometry" />
        </mxCell>
        <mxCell id="CvR_p0ys87GuMxXZfBsb-21" value="&lt;span style=&quot;font-size: 10px;&quot;&gt;Inventory&lt;/span&gt;" style="text;html=1;align=center;verticalAlign=middle;whiteSpace=wrap;rounded=0;" vertex="1" parent="1">
          <mxGeometry x="479.4" y="295" width="60" height="30" as="geometry" />
        </mxCell>
        <mxCell id="CvR_p0ys87GuMxXZfBsb-42" style="edgeStyle=orthogonalEdgeStyle;rounded=0;orthogonalLoop=1;jettySize=auto;html=1;exitX=1;exitY=0.5;exitDx=0;exitDy=0;" edge="1" parent="1" source="CvR_p0ys87GuMxXZfBsb-24" target="CvR_p0ys87GuMxXZfBsb-25">
          <mxGeometry relative="1" as="geometry" />
        </mxCell>
        <mxCell id="CvR_p0ys87GuMxXZfBsb-24" value="" style="rounded=0;whiteSpace=wrap;html=1;" vertex="1" parent="1">
          <mxGeometry x="680" y="161.25" width="190" height="217.5" as="geometry" />
        </mxCell>
        <mxCell id="CvR_p0ys87GuMxXZfBsb-25" value="" style="rounded=0;whiteSpace=wrap;html=1;" vertex="1" parent="1">
          <mxGeometry x="1070" y="166.25" width="190" height="217.5" as="geometry" />
        </mxCell>
        <mxCell id="CvR_p0ys87GuMxXZfBsb-26" value="" style="image;sketch=0;aspect=fixed;html=1;points=[];align=center;fontSize=12;image=img/lib/mscae/Data_Lake.svg;" vertex="1" parent="1">
          <mxGeometry x="697.9" y="222" width="34.2" height="45" as="geometry" />
        </mxCell>
        <mxCell id="CvR_p0ys87GuMxXZfBsb-27" value="Silver" style="text;html=1;align=center;verticalAlign=middle;whiteSpace=wrap;rounded=0;fontStyle=1" vertex="1" parent="1">
          <mxGeometry x="683" y="270" width="60" height="30" as="geometry" />
        </mxCell>
        <mxCell id="CvR_p0ys87GuMxXZfBsb-28" value="" style="image;aspect=fixed;html=1;points=[];align=center;fontSize=12;image=img/lib/azure2/general/Folder_Blank.svg;" vertex="1" parent="1">
          <mxGeometry x="791.49" y="170" width="36.97" height="30" as="geometry" />
        </mxCell>
        <mxCell id="CvR_p0ys87GuMxXZfBsb-29" value="&lt;font style=&quot;font-size: 10px;&quot;&gt;Transformed&lt;br&gt;Orders&lt;/font&gt;" style="text;html=1;align=center;verticalAlign=middle;whiteSpace=wrap;rounded=0;" vertex="1" parent="1">
          <mxGeometry x="779.97" y="212" width="60" height="30" as="geometry" />
        </mxCell>
        <mxCell id="CvR_p0ys87GuMxXZfBsb-30" value="" style="image;aspect=fixed;html=1;points=[];align=center;fontSize=12;image=img/lib/azure2/general/Folder_Blank.svg;" vertex="1" parent="1">
          <mxGeometry x="795" y="250" width="36.97" height="30" as="geometry" />
        </mxCell>
        <mxCell id="CvR_p0ys87GuMxXZfBsb-31" value="&lt;span style=&quot;font-size: 10px;&quot;&gt;Inactive Customers&lt;/span&gt;" style="text;html=1;align=center;verticalAlign=middle;whiteSpace=wrap;rounded=0;" vertex="1" parent="1">
          <mxGeometry x="768.46" y="280" width="91.54" height="30" as="geometry" />
        </mxCell>
        <mxCell id="CvR_p0ys87GuMxXZfBsb-32" value="" style="image;aspect=fixed;html=1;points=[];align=center;fontSize=12;image=img/lib/azure2/general/Folder_Blank.svg;" vertex="1" parent="1">
          <mxGeometry x="800" y="315" width="36.97" height="30" as="geometry" />
        </mxCell>
        <mxCell id="CvR_p0ys87GuMxXZfBsb-34" value="&lt;span style=&quot;font-size: 10px;&quot;&gt;Low Stock products&lt;/span&gt;" style="text;html=1;align=center;verticalAlign=middle;whiteSpace=wrap;rounded=0;" vertex="1" parent="1">
          <mxGeometry x="788.49" y="348.75" width="60" height="30" as="geometry" />
        </mxCell>
        <mxCell id="CvR_p0ys87GuMxXZfBsb-37" value="Azure Databricks" style="text;html=1;align=center;verticalAlign=middle;whiteSpace=wrap;rounded=0;fontStyle=1" vertex="1" parent="1">
          <mxGeometry x="573.5899999999999" y="290" width="76.37" height="20" as="geometry" />
        </mxCell>
        <mxCell id="CvR_p0ys87GuMxXZfBsb-39" value="" style="image;aspect=fixed;html=1;points=[];align=center;fontSize=12;image=img/lib/azure2/analytics/Azure_Databricks.svg;" vertex="1" parent="1">
          <mxGeometry x="942" y="232" width="53.56" height="58" as="geometry" />
        </mxCell>
        <mxCell id="CvR_p0ys87GuMxXZfBsb-43" value="Azure Databricks" style="text;html=1;align=center;verticalAlign=middle;whiteSpace=wrap;rounded=0;fontStyle=1" vertex="1" parent="1">
          <mxGeometry x="930" y="300" width="76.37" height="20" as="geometry" />
        </mxCell>
        <mxCell id="CvR_p0ys87GuMxXZfBsb-44" value="" style="image;aspect=fixed;html=1;points=[];align=center;fontSize=12;image=img/lib/azure2/general/Folder_Blank.svg;" vertex="1" parent="1">
          <mxGeometry x="1204" y="182" width="36.97" height="30" as="geometry" />
        </mxCell>
        <mxCell id="CvR_p0ys87GuMxXZfBsb-46" value="&lt;span style=&quot;font-size: 10px;&quot;&gt;Analytics tables&lt;/span&gt;" style="text;html=1;align=center;verticalAlign=middle;whiteSpace=wrap;rounded=0;" vertex="1" parent="1">
          <mxGeometry x="1181" y="222" width="60" height="30" as="geometry" />
        </mxCell>
        <mxCell id="CvR_p0ys87GuMxXZfBsb-47" value="" style="image;html=1;image=img/lib/clip_art/finance/Pie_Chart_128x128.png" vertex="1" parent="1">
          <mxGeometry x="1181" y="290" width="60" height="55" as="geometry" />
        </mxCell>
        <mxCell id="CvR_p0ys87GuMxXZfBsb-49" value="&lt;span style=&quot;font-size: 10px;&quot;&gt;Analytics visualisation&lt;/span&gt;" style="text;html=1;align=center;verticalAlign=middle;whiteSpace=wrap;rounded=0;" vertex="1" parent="1">
          <mxGeometry x="1181" y="345" width="60" height="30" as="geometry" />
        </mxCell>
        <mxCell id="CvR_p0ys87GuMxXZfBsb-50" value="" style="image;sketch=0;aspect=fixed;html=1;points=[];align=center;fontSize=12;image=img/lib/mscae/Data_Lake.svg;" vertex="1" parent="1">
          <mxGeometry x="1100" y="210" width="34.2" height="45" as="geometry" />
        </mxCell>
        <mxCell id="CvR_p0ys87GuMxXZfBsb-51" value="Gold" style="text;html=1;align=center;verticalAlign=middle;whiteSpace=wrap;rounded=0;fontStyle=1" vertex="1" parent="1">
          <mxGeometry x="1087.1" y="270" width="60" height="30" as="geometry" />
        </mxCell>
      </root>
    </mxGraphModel>
  </diagram>
</mxfile>
